<?xml version="1.0" standalone="no"?>
<!DOCTYPE svg PUBLIC "-//W3C//DTD SVG 20010904//EN"
 "http://www.w3.org/TR/2001/REC-SVG-20010904/DTD/svg10.dtd">
<svg version="1.0" xmlns="http://www.w3.org/2000/svg"
 width="512.000000pt" height="512.000000pt" viewBox="0 0 512.000000 512.000000"
 preserveAspectRatio="xMidYMid meet">
<metadata>
Created by potrace 1.14, written by Peter Selinger 2001-2017
</metadata>
<g transform="translate(0.000000,512.000000) scale(0.100000,-0.100000)"
fill="#000000" stroke="none">
<path d="M0 4215 l0 -905 207 0 c114 0 256 5 316 12 100 11 110 14 118 36 10
25 5 42 -12 42 -9 0 -41 13 -139 57 -19 9 -37 20 -40 24 -3 4 -24 21 -47 36
-46 32 -103 82 -118 105 -5 8 -38 49 -72 89 -72 85 -132 199 -165 314 -20 69
-23 103 -23 250 0 148 3 181 23 250 81 281 273 480 532 551 100 27 274 25 370
-5 153 -47 281 -136 367 -254 20 -28 43 -58 50 -65 21 -22 108 -174 121 -211
7 -19 12 -55 12 -81 0 -56 -25 -84 -85 -97 -42 -10 -266 5 -275 17 -3 4 -15
10 -27 14 -13 4 -40 34 -60 67 -21 33 -47 75 -58 92 -26 41 -118 103 -173 117
-55 14 -135 3 -192 -25 -50 -26 -128 -104 -155 -156 -47 -90 -56 -222 -24
-338 24 -85 51 -133 106 -186 64 -62 106 -79 203 -79 82 -1 87 0 142 36 42 27
70 57 107 112 27 41 52 83 55 94 14 44 390 68 453 29 22 -14 51 -92 45 -126
-4 -29 -2 -33 12 -28 20 8 20 -5 1 -69 -8 -27 -15 -50 -15 -51 0 -1 37 23 83
53 104 70 275 154 394 194 531 176 1113 76 1548 -265 140 -111 322 -310 387
-426 21 -38 23 -39 79 -39 41 0 58 -4 63 -15 3 -9 18 -15 38 -15 18 0 152 -13
298 -30 208 -23 309 -30 468 -30 l202 0 0 905 0 905 -2560 0 -2560 0 0 -905z"/>
<path d="M0 1460 l0 -1460 843 2 c463 1 821 3 796 5 l-46 4 -6 282 c-5 273
-32 618 -49 625 -4 2 -8 27 -8 56 0 74 -13 83 -127 88 -60 2 -96 -1 -103 -8
-7 -7 -14 -39 -17 -73 -3 -33 -10 -61 -14 -61 -5 0 -9 -12 -9 -27 0 -44 -55
-193 -70 -193 -4 0 -13 -12 -19 -27 -13 -30 -111 -144 -111 -128 0 5 -12 -3
-27 -17 -72 -66 -204 -96 -403 -93 -71 2 -102 -2 -123 -14 l-27 -15 0 -198 0
-198 -195 0 -195 0 0 780 0 780 223 2 c224 1 264 2 414 12 57 4 97 1 130 -9
57 -18 56 -17 48 -5 -3 6 -4 10 0 10 7 0 175 -87 196 -102 9 -6 24 -8 34 -4
17 6 17 17 0 72 -4 14 2 30 20 52 l27 32 -52 89 c-121 210 -196 443 -219 681
-7 70 -9 43 -10 -150 -2 -203 -4 -230 -15 -200 -12 32 -13 23 -19 -110 -6
-151 -19 -220 -41 -220 -8 0 -19 -7 -26 -15 -23 -28 -80 -35 -200 -25 -138 11
-187 24 -195 50 -4 11 -12 20 -19 20 -20 0 -25 104 -33 603 -6 421 -7 450 -25
473 -11 13 -26 24 -34 24 -8 0 -14 4 -14 9 0 5 -40 10 -88 13 -70 3 -95 8
-119 26 -17 12 -41 22 -52 22 l-21 0 0 -1460z"/>
<path d="M5082 2900 c-23 -14 -59 -23 -115 -27 -93 -6 -138 -27 -155 -71 -7
-17 -12 -197 -15 -497 -5 -534 -6 -540 -73 -588 -37 -26 -51 -29 -165 -36
-139 -9 -179 -1 -212 39 -12 14 -26 25 -32 25 -15 0 -33 153 -35 295 -2 120
-2 123 -15 80 -11 -39 -13 -1 -14 298 -1 299 -3 343 -16 349 -9 3 -17 4 -19 2
-2 -2 1 -49 6 -104 17 -183 -16 -439 -82 -638 -85 -253 -223 -470 -421 -663
-150 -145 -322 -262 -487 -330 -37 -15 -70 -30 -75 -34 -4 -4 0 -23 8 -44 14
-33 14 -40 2 -49 -8 -7 -17 -39 -21 -74 -5 -58 -4 -63 19 -82 17 -13 21 -21
13 -24 -24 -8 102 -29 134 -22 43 10 109 8 139 -3 37 -14 67 -78 65 -137 -3
-81 -27 -118 -103 -156 -80 -40 -92 -62 -104 -204 -11 -129 -26 -193 -47 -198
-10 -3 405 -5 921 -6 l937 -1 0 1460 c0 803 -1 1460 -2 1460 -2 0 -18 -9 -36
-20z"/>
<path d="M907 2763 c-4 -3 -6 -36 -5 -72 l1 -66 7 70 c7 76 7 78 -3 68z"/>
<path d="M584 1132 c-66 -21 -83 -61 -85 -193 -2 -113 4 -119 105 -119 70 0
88 4 116 23 107 71 94 218 -24 273 -52 24 -74 27 -112 16z"/>
<path d="M2130 905 c0 -32 -4 -45 -14 -45 -10 0 -16 -23 -21 -85 -4 -47 -10
-85 -14 -85 -4 0 -15 -73 -25 -162 -9 -90 -21 -202 -27 -249 -5 -47 -9 -103
-9 -124 0 -53 -30 -143 -49 -148 -9 -3 97 -4 234 -4 138 0 235 2 217 4 l-33 4
3 107 3 107 108 3 c89 2 107 0 107 -12 0 -20 38 -30 56 -15 11 9 13 30 11 89
-3 70 -7 82 -37 121 -18 24 -39 49 -46 54 -26 23 -44 85 -35 125 6 26 5 40 -2
43 -6 2 2 20 17 40 16 20 26 37 22 37 -3 0 6 16 19 36 29 43 31 54 9 54 -16 0
-16 2 2 65 5 20 -1 21 -153 33 -136 10 -217 22 -320 47 -21 5 -23 2 -23 -40z"/>
<path d="M2977 353 c-4 -3 -7 -21 -7 -40 0 -18 -4 -33 -9 -33 -4 0 -11 -44
-14 -98 -4 -73 -11 -110 -26 -140 l-21 -42 112 2 c62 0 98 3 81 5 l-33 4 0
136 c0 165 -11 213 -50 213 -15 0 -30 -3 -33 -7z"/>
<path d="M2654 43 c-12 -2 -30 -13 -40 -24 -17 -19 -16 -19 57 -18 41 1 62 4
47 6 -20 3 -28 10 -28 24 0 10 -3 18 -7 18 -5 -1 -18 -4 -29 -6z"/>
</g>
</svg>
